<svg width="24" height="24" viewBox="0 0 24 24" fill="none" xmlns="http://www.w3.org/2000/svg">
<path d="M6 2C4.93913 2 3.92172 2.42143 3.17157 3.17157C2.42143 3.92172 2 4.93913 2 6V9H4V6C4 5.46957 4.21071 4.96086 4.58579 4.58579C4.96086 4.21071 5.46957 4 6 4H18C18.5304 4 19.0391 4.21071 19.4142 4.58579C19.7893 4.96086 20 5.46957 20 6V18C20 18.5304 19.7893 19.0391 19.4142 19.4142C19.0391 19.7893 18.5304 20 18 20H6C5.46957 20 4.96086 19.7893 4.58579 19.4142C4.21071 19.0391 4 18.5304 4 18V15H2V18C2 19.0609 2.42143 20.0783 3.17157 20.8284C3.92172 21.5786 4.93913 22 6 22H18C19.0609 22 20.0783 21.5786 20.8284 20.8284C21.5786 20.0783 22 19.0609 22 18V6C22 4.93913 21.5786 3.92172 20.8284 3.17157C20.0783 2.42143 19.0609 2 18 2H6Z" fill="#FE5151"/>
<path d="M3 10.9994C2.73478 10.9994 2.48043 11.1048 2.29289 11.2923C2.10536 11.4799 2 11.7342 2 11.9994C2 12.2646 2.10536 12.519 2.29289 12.7065C2.48043 12.8941 2.73478 12.9994 3 12.9994H12.582L10.047 15.5354C9.86484 15.724 9.76405 15.9766 9.76633 16.2388C9.7686 16.501 9.87377 16.7518 10.0592 16.9372C10.2446 17.1227 10.4954 17.2278 10.7576 17.2301C11.0198 17.2324 11.2724 17.1316 11.461 16.9494L15.657 12.7534C15.765 12.6597 15.8517 12.5439 15.9111 12.4138C15.9704 12.2838 16.0012 12.1424 16.0012 11.9994C16.0012 11.8564 15.9704 11.7151 15.9111 11.585C15.8517 11.4549 15.765 11.3391 15.657 11.2454L11.46 7.04943C11.3678 6.95392 11.2574 6.87774 11.1354 6.82533C11.0134 6.77292 10.8822 6.74533 10.7494 6.74418C10.6166 6.74302 10.4849 6.76833 10.362 6.81861C10.2392 6.86889 10.1275 6.94314 10.0336 7.03703C9.93971 7.13093 9.86546 7.24258 9.81518 7.36547C9.7649 7.48837 9.7396 7.62005 9.74075 7.75283C9.7419 7.88561 9.76949 8.01683 9.8219 8.13883C9.87431 8.26084 9.95049 8.37118 10.046 8.46343L12.582 10.9994H3Z" fill="#FE5151"/>
</svg>
