<svg width="48" height="48" viewBox="0 0 48 48" fill="none" xmlns="http://www.w3.org/2000/svg">
<path d="M0 3.46154C0 1.54978 1.54978 0 3.46154 0H44.5385C46.4502 0 48 1.54978 48 3.46154V44.5385C48 46.4502 46.4502 48 44.5385 48H3.46154C1.54978 48 0 46.4502 0 44.5385V3.46154Z" fill="#7256FD"/>
<path d="M13.5009 33.479C14.1381 33.479 14.6547 33.9956 14.6547 34.6328V40.3924C14.6547 41.0296 14.1381 41.5462 13.5009 41.5462H7.74136C7.10411 41.5462 6.58751 41.0296 6.58751 40.3924L6.58751 34.6328C6.58751 33.9956 7.10411 33.479 7.74136 33.479H13.5009Z" fill="white"/>
</svg>
