<svg width="143" height="24" viewBox="0 0 143 24" fill="none" xmlns="http://www.w3.org/2000/svg">
<path d="M9.61229 11.0666H18.7805V12.4606C18.7805 15.0422 17.9447 17.1332 16.273 18.7337C14.6013 20.3343 12.442 21.1345 9.79514 21.1345C6.97414 21.1345 4.63201 20.231 2.76876 18.4239C0.922919 16.5997 0 14.3796 0 11.7636C0 9.13049 0.914213 6.90178 2.74264 5.07751C4.58848 3.25324 6.86966 2.34111 9.58617 2.34111C11.2753 2.34111 12.8251 2.71973 14.2356 3.47697C15.6461 4.23422 16.7519 5.25822 17.5529 6.54897L14.4707 8.3044C14.0353 7.56437 13.3736 6.96202 12.4855 6.49734C11.5974 6.03267 10.6223 5.80033 9.56005 5.80033C7.80128 5.80033 6.36466 6.36827 5.25019 7.50413C4.13572 8.60558 3.57849 10.0254 3.57849 11.7636C3.57849 13.4674 4.14443 14.8787 5.27631 15.9973C6.4082 17.0988 7.92318 17.6495 9.82126 17.6495C11.1969 17.6495 12.3462 17.3483 13.2691 16.7459C14.1921 16.1436 14.819 15.3003 15.1498 14.2161H9.61229V11.0666Z" fill="black"/>
<path d="M23.5646 12.5123V19.0693H32.4456V20.7731H21.7362V2.70252H32.315V4.40632H23.5646V10.8085H31.662V12.5123H23.5646Z" fill="black"/>
<path d="M34.0199 2.70252H47.0801V4.40632H41.4642V20.7731H39.6358V4.40632H34.0199V2.70252Z" fill="black"/>
<path d="M63.4847 2.70252H67.1938V20.7731H63.6153V9.05304L58.4696 17.443H58.0517L52.906 9.07886V20.7731H49.3014V2.70252H53.0105L58.2606 11.2473L63.4847 2.70252Z" fill="black"/>
<path d="M86.2729 20.7731H82.3548L81.2578 17.5204H73.9702L72.8731 20.7731H68.9812L75.3807 2.70252H79.8473L86.2729 20.7731ZM77.6271 6.80713L75.1195 14.1903H80.1346L77.6271 6.80713Z" fill="black"/>
<path d="M101.97 20.7731H98.0785L94.3955 14.5H91.6529V20.7731H88.0483V2.70252H95.362C97.0511 2.70252 98.4877 3.28766 99.6718 4.45795C100.856 5.62823 101.448 7.03946 101.448 8.69163C101.448 9.81029 101.126 10.8515 100.482 11.8153C99.8372 12.7618 98.984 13.476 97.9218 13.9579L101.97 20.7731ZM95.362 6.03267H91.6529V11.3764H95.362C96.0411 11.3764 96.6244 11.1183 97.112 10.6019C97.5996 10.0684 97.8434 9.43166 97.8434 8.69163C97.8434 7.9516 97.5996 7.32343 97.112 6.80713C96.6244 6.29082 96.0411 6.03267 95.362 6.03267Z" fill="black"/>
<path d="M111.354 11.4797L118.381 20.7731H114.228L107.698 12.3057V20.7731H104.093V2.70252H107.698V10.6794L113.966 2.70252H118.12L111.354 11.4797Z" fill="black"/>
<path d="M118.516 3.02521C118.516 1.35443 119.887 0 121.577 0H139.739C141.43 0 142.8 1.35443 142.8 3.02521V20.9748C142.8 22.6456 141.43 24 139.739 24H121.577C119.887 24 118.516 22.6456 118.516 20.9748V3.02521Z" fill="#7256FD"/>
<path d="M124.91 16.7395C125.473 16.7395 125.93 17.191 125.93 17.7479V19.7647C125.93 20.3216 125.473 20.7731 124.91 20.7731H122.869C122.306 20.7731 121.849 20.3216 121.849 19.7647V17.7479C121.849 17.191 122.306 16.7395 122.869 16.7395H124.91Z" fill="white"/>
</svg>
