<svg width="20" height="20" viewBox="0 0 20 20" fill="none" xmlns="http://www.w3.org/2000/svg">
<g clip-path="url(#clip0_1259_845)">
<path fill-rule="evenodd" clip-rule="evenodd" d="M10 10.0004C7.794 10.0004 6 8.20642 6 6.00042C6 3.79442 7.794 2.00042 10 2.00042C12.206 2.00042 14 3.79442 14 6.00042C14 8.20642 12.206 10.0004 10 10.0004ZM13.758 10.6734C14.4582 10.1124 15.0232 9.40123 15.4113 8.59234C15.7994 7.78344 16.0006 6.89759 16 6.00042C16.0007 4.98596 15.7442 3.98794 15.2545 3.09954C14.7647 2.21113 14.0577 1.46131 13.1996 0.920339C12.3414 0.37937 11.3601 0.0648753 10.3473 0.00615406C9.33457 -0.0525672 8.32346 0.146486 7.40851 0.584645C6.49356 1.0228 5.70465 1.6858 5.11551 2.51165C4.52637 3.3375 4.15622 4.2992 4.0397 5.30694C3.92319 6.31467 4.06408 7.33548 4.44922 8.27398C4.83436 9.21248 5.45118 10.038 6.242 10.6734C2.583 12.0484 0 15.4454 0 20.0004H2C2 15.0004 5.589 12.0004 10 12.0004C14.411 12.0004 18 15.0004 18 20.0004H20C20 15.4454 17.417 12.0484 13.758 10.6734Z" fill="black"/>
</g>
<defs>
<clipPath id="clip0_1259_845">
<rect width="20" height="20" fill="white"/>
</clipPath>
</defs>
</svg>
