<svg width="14" height="15" viewBox="0 0 14 15" fill="none" xmlns="http://www.w3.org/2000/svg">
<path fill-rule="evenodd" clip-rule="evenodd" d="M12.8254 4.60638L12.4055 3.8777C12.0502 3.26112 11.2629 3.04841 10.6455 3.4022C10.3516 3.57533 10.0009 3.62445 9.67073 3.53873C9.34058 3.453 9.05807 3.23947 8.88553 2.94522C8.77453 2.75819 8.71488 2.54517 8.71262 2.32769C8.72263 1.97902 8.59109 1.64114 8.34795 1.39102C8.10482 1.14091 7.7708 0.999856 7.42198 1H6.57596C6.23423 1 5.90658 1.13617 5.66552 1.37839C5.42446 1.62061 5.28985 1.94891 5.2915 2.29064C5.28137 2.9962 4.70649 3.56283 4.00086 3.56275C3.78338 3.5605 3.57035 3.50085 3.38333 3.38985C2.7659 3.03606 1.97862 3.24877 1.62336 3.86534L1.17256 4.60638C0.81774 5.22219 1.02755 6.00898 1.64189 6.36635C2.04122 6.5969 2.28722 7.02297 2.28722 7.48408C2.28722 7.94518 2.04122 8.37126 1.64189 8.60181C1.02833 8.95676 0.818291 9.74165 1.17256 10.3556L1.59866 11.0905C1.76511 11.3908 2.04439 11.6124 2.37469 11.7063C2.705 11.8002 3.05909 11.7586 3.35862 11.5907C3.65308 11.4188 4.00398 11.3718 4.33331 11.4599C4.66264 11.548 4.94312 11.7641 5.11241 12.06C5.22342 12.247 5.28306 12.46 5.28532 12.6775C5.28532 13.3903 5.86316 13.9682 6.57596 13.9682H7.42198C8.13238 13.9682 8.70922 13.3941 8.71262 12.6837C8.71097 12.3409 8.84641 12.0116 9.08882 11.7692C9.33122 11.5268 9.66046 11.3914 10.0033 11.3931C10.2202 11.3989 10.4324 11.4583 10.6208 11.566C11.2366 11.9208 12.0234 11.711 12.3808 11.0966L12.8254 10.3556C12.9975 10.0602 13.0447 9.70837 12.9566 9.37804C12.8685 9.04771 12.6524 8.76612 12.3561 8.59563C12.0597 8.42515 11.8436 8.14356 11.7555 7.81323C11.6674 7.48289 11.7146 7.13107 11.8867 6.83567C11.9986 6.64027 12.1607 6.47826 12.3561 6.36635C12.9667 6.00917 13.176 5.22698 12.8254 4.61256V4.60638Z" stroke="white" stroke-width="1.5" stroke-linecap="round" stroke-linejoin="round"/>
<path d="M7.00104 9.26185C7.98322 9.26185 8.77943 8.46564 8.77943 7.48346C8.77943 6.50129 7.98322 5.70508 7.00104 5.70508C6.01887 5.70508 5.22266 6.50129 5.22266 7.48346C5.22266 8.46564 6.01887 9.26185 7.00104 9.26185Z" stroke="white" stroke-width="1.5" stroke-linecap="round" stroke-linejoin="round"/>
</svg>
